<svg clip-rule="evenodd" fill-rule="evenodd" height="512" image-rendering="optimizeQuality" shape-rendering="geometricPrecision" text-rendering="geometricPrecision" viewBox="0 0 4335 4335" width="512" xmlns="http://www.w3.org/2000/svg"><g id="Layer_x0020_1"><path d="m1887 1900h-847c-76 0-76-115 0-115h847c76 0 76 115 0 115zm-1258-884v-958c0-31 26-57 58-57h2961c32 0 58 26 58 57v958h291c32 0 57 25 57 57v2291c0 32-25 58-57 58h-1232c-122 82-194 217-194 365 0 55 10 108 30 158h623c31 0 57 26 57 58v273c0 32-26 58-57 58h-2113c-31 0-57-26-57-58v-273c0-32 26-58 57-58h623c20-50 29-103 29-158 0-147-71-283-193-365h-1232c-32 0-57-26-57-58v-2291c0-32 25-57 57-57zm115 1946h2847v-2371h-2847zm2847-2486v-360h-2847v360zm-999 2946h-849c124 142 167 341 113 523h623c-54-182-11-381 113-523zm-2196-116h3543v-2175h-233v1890c0 29-25 57-58 57h-2961c-33 0-58-27-58-58v-1889h-233zm773 913h1997v-158h-1997zm-31-3865h-204c-76 0-76-116 0-116h204c76 0 76 116 0 116zm367 0h-204c-76 0-76-116 0-116h204c76 0 76 116 0 116zm367 0h-204c-76 0-76-116 0-116h204c76 0 76 116 0 116zm1529 0h-1106c-76 0-76-116 0-116h1106c76 0 76 116 0 116zm-106 2420h-847c-32 0-58-26-58-58v-714c0-32 26-58 58-58h847c32 0 58 26 58 58v714c0 32-26 58-58 58zm-789-115h731v-600h-731zm789-1764h-847c-76 0-76-116 0-116h847c76 0 76 116 0 116zm0 291h-847c-76 0-76-116 0-116h847c76 0 76 116 0 116zm0 291h-847c-76 0-76-115 0-115h847c76 0 76 115 0 115zm0 291h-847c-76 0-76-115 0-115h847c76 0 76 115 0 115zm-1408-159h-847c-32 0-58-26-58-58v-714c0-32 26-58 58-58h847c32 0 58 26 58 58v714c0 32-26 58-58 58zm-789-115h731v-599h-731zm789 1280h-847c-76 0-76-115 0-115h847c76 0 76 115 0 115zm0-291h-847c-76 0-76-116 0-116h847c76 0 76 116 0 116zm0-291h-847c-76 0-76-116 0-116h847c76 0 76 116 0 116z" fill="#333"/><path d="m1098 1494h731v-599h-731z" fill="#1aa1ff"/><path d="m2506 2059v600h731v-600z" fill="#1aa1ff"/><path d="m2390 2002c0-32 26-58 58-58h847c32 0 58 26 58 58v714c0 32-26 58-58 58h-847c-32 0-58-26-58-58zm-445-451c0 32-26 58-58 58h-847c-32 0-58-26-58-58v-714c0-32 26-58 58-58h847c32 0 58 26 58 58zm-905 234h847c76 0 76 115 0 115h-847c-76 0-76-115 0-115zm-296-1194v2371h2847v-2371zm2551 595h-847c-76 0-76-116 0-116h847c76 0 76 116 0 116zm0-291h-847c-76 0-76-116 0-116h847c76 0 76 116 0 116zm-847 582c-76 0-76-115 0-115h847c76 0 76 115 0 115zm0 176h847c76 0 76 115 0 115h-847c-76 0-76-115 0-115zm-1408 423h847c76 0 76 116 0 116h-847c-76 0-76-116 0-116zm0 291h847c76 0 76 116 0 116h-847c-76 0-76-116 0-116zm0 292h847c76 0 76 115 0 115h-847c-76 0-76-115 0-115z" fill="#ffe4af"/><path d="m744 476h2847v-360h-2847zm1128-238c76 0 76 116 0 116h-204c-76 0-76-116 0-116zm-367 0c76 0 76 116 0 116h-204c-76 0-76-116 0-116zm-367 0c76 0 76 116 0 116h-204c-76 0-76-116 0-116zm1157 116c-76 0-76-116 0-116h1106c76 0 76 116 0 116z" fill="#ff3131"/><path d="m3648 3078h-2961c-33 0-58-27-58-58v-1889h-233v2175h3543v-2175h-233v1890c0 29-25 57-58 57z" fill="#a7ffff"/><g fill="#797959"><path d="m2592 3422h-849c124 142 167 341 113 523h623c-54-182-11-381 113-523z"/><path d="m3166 4061h-1997v158h1997z"/></g></g></svg>