<svg xmlns="http://www.w3.org/2000/svg" version="1.1" xmlns:xlink="http://www.w3.org/1999/xlink" xmlns:svgjs="http://svgjs.com/svgjs" width="1440" height="1080" preserveAspectRatio="none" viewBox="0 0 1440 1080"><g mask="url(&quot;#SvgjsMask2033&quot;)" fill="none"><rect width="1440" height="1080" x="0" y="0" fill="url(#SvgjsLinearGradient2034)"></rect><path d="M 607,-408.3803517951849 C 719,-192.38 1162.4,239.62 1167,671.6196482048151 C 1171.6,1103.62 605,1669.94 630,1751.6196482048151 C 655,1833.3 1159.6,1214.32 1292,1080" stroke="rgba(255, 87, 34, 1)" stroke-width="2"></path><path d="M 1189,-602.0840217051268 C 1016.4,-386.08 381.8,45.92 326,477.91597829487324 C 270.2,909.92 868.6,1437.5 910,1557.9159782948732 C 951.4,1678.33 608.4,1175.58 533,1080" stroke="rgba(255, 87, 34, 1)" stroke-width="2"></path><path d="M 561,-920.885254892383 C 721.8,-704.89 1399,-272.89 1365,159.11474510761698 C 1331,591.11 466.2,1054.94 391,1239.114745107617 C 315.8,1423.29 869.4,1111.82 989,1080" stroke="rgba(255, 87, 34, 1)" stroke-width="2"></path><path d="M 634,-1744.333112163913 C 720.4,-1528.33 1124.8,-1096.33 1066,-664.333112163913 C 1007.2,-232.33 301.2,66.8 340,415.66688783608697 C 378.8,764.53 1076,947.13 1260,1080" stroke="rgba(255, 87, 34, 1)" stroke-width="2"></path><path d="M 1009,-2156.0971275755255 C 832.8,-1940.1 147.2,-1508.1 128,-1076.0971275755255 C 108.8,-644.1 921.4,-427.32 913,3.902872424474481 C 904.6,435.12 251.4,864.78 86,1080" stroke="rgba(255, 87, 34, 1)" stroke-width="2"></path><path d="M 487,-134.081562628288 C 621.4,81.92 1164.6,513.92 1159,945.918437371712 C 1153.4,1377.92 515.8,1999.1 459,2025.9184373717121 C 402.2,2052.73 791.8,1269.18 875,1080" stroke="rgba(255, 87, 34, 1)" stroke-width="2"></path></g><defs><mask id="SvgjsMask2033"><rect width="1440" height="1080" fill="#ffffff"></rect></mask><linearGradient x1="93.75%" y1="108.33%" x2="6.25%" y2="-8.33%" gradientUnits="userSpaceOnUse" id="SvgjsLinearGradient2034"><stop stop-color="rgba(14, 42, 71, 1)" offset="0.09"></stop><stop stop-color="rgba(14, 42, 71, 1)" offset="0.19"></stop><stop stop-color="rgba(14, 42, 71, 1)" offset="0.28"></stop><stop stop-color="rgba(0, 69, 158, 1)" offset="0.55"></stop></linearGradient></defs></svg>