<?xml version="1.0" encoding="UTF-8" standalone="no"?>
<!-- Created with Inkscape (http://www.inkscape.org/) -->

<svg
   version="1.1"
   id="svg10044"
   xml:space="preserve"
   width="682.66669"
   height="682.66669"
   viewBox="0 0 682.66669 682.66669"
   xmlns="http://www.w3.org/2000/svg"
   xmlns:svg="http://www.w3.org/2000/svg"><defs
     id="defs10048"><clipPath
       clipPathUnits="userSpaceOnUse"
       id="clipPath10058"><path
         d="M 0,512 H 512 V 0 H 0 Z"
         id="path10056" /></clipPath></defs><g
     id="g10050"
     transform="matrix(1.3333333,0,0,-1.3333333,0,682.66667)"><g
       id="g10052"><g
         id="g10054"
         clip-path="url(#clipPath10058)"><g
           id="g10060"
           transform="translate(504.5,390.3516)"><path
             d="m 0,0 h -497 v 62.63 c 0,11.158 9.045,20.203 20.203,20.203 H -20.203 C -9.045,82.833 0,73.788 0,62.63 Z"
             style="fill:#80b4fb;fill-opacity:1;fill-rule:nonzero;stroke:none"
             id="path10062" /></g><g
           id="g10064"
           transform="translate(484.2969,473.1846)"><path
             d="m 0,0 h -30.305 c 11.158,0 20.203,-9.045 20.203,-20.203 v -62.63 h 30.305 v 62.63 C 20.203,-9.045 11.158,0 0,0"
             style="fill:#61a2f9;fill-opacity:1;fill-rule:nonzero;stroke:none"
             id="path10066" /></g><g
           id="g10068"
           transform="translate(7.5,390.3516)"><path
             d="m 0,0 h 497 v -331.333 c 0,-11.158 -9.045,-20.203 -20.203,-20.203 H 20.203 C 9.045,-351.536 0,-342.491 0,-331.333 Z"
             style="fill:#e4f6ff;fill-opacity:1;fill-rule:nonzero;stroke:none"
             id="path10070" /></g><g
           id="g10072"
           transform="translate(474.1953,390.3516)"><path
             d="m 0,0 v -331.333 c 0,-11.158 -9.046,-20.203 -20.203,-20.203 h 30.305 c 11.158,0 20.203,9.045 20.203,20.203 V 0 Z"
             style="fill:#b9e4ef;fill-opacity:1;fill-rule:nonzero;stroke:none"
             id="path10074" /></g><path
           d="M 94.374,103.466 H 417.626 V 71.141 H 94.374 Z"
           style="fill:#e490b7;fill-opacity:1;fill-rule:nonzero;stroke:none"
           id="path10076" /><g
           id="g10078"
           transform="translate(379.2354,243.8779)"><path
             d="m 0,0 c -8.927,0 -16.162,7.236 -16.162,16.163 0,8.926 7.235,16.162 16.162,16.162 8.927,0 16.163,-7.236 16.163,-16.162 C 16.163,7.236 8.927,0 0,0 m 70.711,16.163 c 0,3.922 -0.333,7.765 -0.947,11.513 L 92.939,51.158 76.776,79.153 44.855,70.824 c -5.919,4.864 -12.648,8.777 -19.948,11.525 l -8.744,31.799 h -32.325 l -8.745,-31.799 c -7.3,-2.748 -14.029,-6.661 -19.948,-11.525 l -31.921,8.329 -16.163,-27.995 23.175,-23.482 c -0.614,-3.748 -0.947,-7.591 -0.947,-11.513 0,-3.923 0.333,-7.766 0.947,-11.514 l -23.175,-23.482 16.163,-27.994 31.921,8.329 c 5.919,-4.864 12.648,-8.777 19.948,-11.525 l 8.745,-31.8 h 32.325 l 8.744,31.8 c 7.3,2.748 14.029,6.661 19.948,11.525 l 31.921,-8.329 16.163,27.994 -23.175,23.482 c 0.614,3.748 0.947,7.591 0.947,11.514"
             style="fill:#f9ef63;fill-opacity:1;fill-rule:nonzero;stroke:none"
             id="path10080" /></g><g
           id="g10082"
           transform="translate(449.9463,260.041)"><path
             d="M 0,0 C 0,3.922 -0.333,7.765 -0.947,11.513 L 22.229,34.995 6.065,62.99 -6.904,59.605 c 0.552,-4.132 0.843,-8.348 0.843,-12.632 0,-52.164 -42.287,-94.451 -94.45,-94.451 -21.302,0 -40.954,7.054 -56.755,18.951 l -6.384,-6.469 16.163,-27.994 31.921,8.329 c 5.92,-4.864 12.648,-8.777 19.948,-11.526 l 8.745,-31.799 h 32.325 l 8.744,31.799 c 7.3,2.749 14.029,6.662 19.949,11.526 l 31.92,-8.329 16.164,27.994 -23.176,23.482 C -0.333,-7.766 0,-3.923 0,0"
             style="fill:#f1d333;fill-opacity:1;fill-rule:nonzero;stroke:none"
             id="path10084" /></g><g
           id="g10086"
           transform="translate(7.5,390.3516)"><path
             d="M 0,0 V 62.63 C 0,73.788 9.045,82.833 20.203,82.833 H 476.797 C 487.955,82.833 497,73.788 497,62.63 V 0"
             style="fill:none;stroke:#000000;stroke-width:15;stroke-linecap:round;stroke-linejoin:round;stroke-miterlimit:10;stroke-dasharray:none;stroke-opacity:1"
             id="path10088" /></g><g
           id="g10090"
           transform="translate(450.9609,431.7686)"><path
             d="m 0,0 c 0,-6.695 -5.427,-12.122 -12.121,-12.122 -6.695,0 -12.122,5.427 -12.122,12.122 0,6.694 5.427,12.122 12.122,12.122 C -5.427,12.122 0,6.694 0,0"
             style="fill:#000000;fill-opacity:1;fill-rule:nonzero;stroke:none"
             id="path10092" /></g><g
           id="g10094"
           transform="translate(409.5449,431.7686)"><path
             d="m 0,0 c 0,-6.695 -5.428,-12.122 -12.122,-12.122 -6.695,0 -12.122,5.427 -12.122,12.122 0,6.694 5.427,12.122 12.122,12.122 C -5.428,12.122 0,6.694 0,0"
             style="fill:#000000;fill-opacity:1;fill-rule:nonzero;stroke:none"
             id="path10096" /></g><g
           id="g10098"
           transform="translate(368.1279,431.7686)"><path
             d="m 0,0 c 0,-6.695 -5.427,-12.122 -12.122,-12.122 -6.694,0 -12.122,5.427 -12.122,12.122 0,6.694 5.428,12.122 12.122,12.122 C -5.427,12.122 0,6.694 0,0"
             style="fill:#000000;fill-opacity:1;fill-rule:nonzero;stroke:none"
             id="path10100" /></g><g
           id="g10102"
           transform="translate(7.5,154.5)"><path
             d="M 0,0 V 235.85 H 497 V 208.14"
             style="fill:none;stroke:#000000;stroke-width:15;stroke-linecap:round;stroke-linejoin:round;stroke-miterlimit:10;stroke-dasharray:none;stroke-opacity:1"
             id="path10104" /></g><g
           id="g10106"
           transform="translate(504.5,327.6396)"><path
             d="m 0,0 v -268.62 c 0,-11.159 -9.05,-20.199 -20.2,-20.199 h -456.6 c -11.15,0 -20.2,9.04 -20.2,20.199 v 60.48"
             style="fill:none;stroke:#000000;stroke-width:15;stroke-linecap:round;stroke-linejoin:round;stroke-miterlimit:10;stroke-dasharray:none;stroke-opacity:1"
             id="path10108" /></g><g
           id="g10110"
           transform="translate(391.0098,103.4697)"><path
             d="M 0,0 H 26.62 V -32.33 H -296.64 V 0 H -35"
             style="fill:none;stroke:#000000;stroke-width:15;stroke-linecap:round;stroke-linejoin:round;stroke-miterlimit:10;stroke-dasharray:none;stroke-opacity:1"
             id="path10112" /></g><g
           id="g10114"
           transform="translate(379.2354,243.8779)"><path
             d="m 0,0 c -8.927,0 -16.162,7.236 -16.162,16.163 0,8.926 7.235,16.162 16.162,16.162 8.927,0 16.163,-7.236 16.163,-16.162 C 16.163,7.236 8.927,0 0,0 Z m 70.711,16.163 c 0,3.922 -0.333,7.765 -0.947,11.513 L 92.939,51.158 76.776,79.153 44.855,70.824 c -5.919,4.864 -12.648,8.777 -19.948,11.525 l -8.744,31.799 h -32.325 l -8.745,-31.799 c -7.3,-2.748 -14.029,-6.661 -19.948,-11.525 l -31.921,8.329 -16.163,-27.995 23.175,-23.482 c -0.614,-3.748 -0.947,-7.591 -0.947,-11.513 0,-3.923 0.333,-7.766 0.947,-11.514 l -23.175,-23.482 16.163,-27.994 31.921,8.329 c 5.919,-4.864 12.648,-8.777 19.948,-11.525 l 8.745,-31.8 h 32.325 l 8.744,31.8 c 7.3,2.748 14.029,6.661 19.948,11.525 l 31.921,-8.329 16.163,27.994 -23.175,23.482 c 0.614,3.748 0.947,7.591 0.947,11.514 z"
             style="fill:none;stroke:#000000;stroke-width:15;stroke-linecap:round;stroke-linejoin:round;stroke-miterlimit:10;stroke-dasharray:none;stroke-opacity:1"
             id="path10116" /></g><g
           id="g10118"
           transform="translate(120.6387,325.7012)"><path
             d="M 0,0 H -28.285"
             style="fill:none;stroke:#000000;stroke-width:15;stroke-linecap:round;stroke-linejoin:round;stroke-miterlimit:10;stroke-dasharray:none;stroke-opacity:1"
             id="path10120" /></g><g
           id="g10122"
           transform="translate(253.9795,325.7012)"><path
             d="M 0,0 H -101.016"
             style="fill:none;stroke:#000000;stroke-width:15;stroke-linecap:round;stroke-linejoin:round;stroke-miterlimit:10;stroke-dasharray:none;stroke-opacity:1"
             id="path10124" /></g><g
           id="g10126"
           transform="translate(194.3799,287.7187)"><path
             d="M 0,0 H -84.854"
             style="fill:none;stroke:#000000;stroke-width:15;stroke-linecap:round;stroke-linejoin:round;stroke-miterlimit:10;stroke-dasharray:none;stroke-opacity:1"
             id="path10128" /></g><g
           id="g10130"
           transform="translate(77.2012,287.7187)"><path
             d="M 0,0 H -37.376"
             style="fill:none;stroke:#000000;stroke-width:15;stroke-linecap:round;stroke-linejoin:round;stroke-miterlimit:10;stroke-dasharray:none;stroke-opacity:1"
             id="path10132" /></g><g
           id="g10134"
           transform="translate(253.9795,287.7187)"><path
             d="M 0,0 H -27.274"
             style="fill:none;stroke:#000000;stroke-width:15;stroke-linecap:round;stroke-linejoin:round;stroke-miterlimit:10;stroke-dasharray:none;stroke-opacity:1"
             id="path10136" /></g><g
           id="g10138"
           transform="translate(174.1768,249.7373)"><path
             d="M 0,0 H -64.65"
             style="fill:none;stroke:#000000;stroke-width:15;stroke-linecap:round;stroke-linejoin:round;stroke-miterlimit:10;stroke-dasharray:none;stroke-opacity:1"
             id="path10140" /></g><g
           id="g10142"
           transform="translate(77.2012,249.7373)"><path
             d="M 0,0 H -37.376"
             style="fill:none;stroke:#000000;stroke-width:15;stroke-linecap:round;stroke-linejoin:round;stroke-miterlimit:10;stroke-dasharray:none;stroke-opacity:1"
             id="path10144" /></g><g
           id="g10146"
           transform="translate(253.9795,249.7373)"><path
             d="M 0,0 H -47.478"
             style="fill:none;stroke:#000000;stroke-width:15;stroke-linecap:round;stroke-linejoin:round;stroke-miterlimit:10;stroke-dasharray:none;stroke-opacity:1"
             id="path10148" /></g><g
           id="g10150"
           transform="translate(153.9736,173.7725)"><path
             d="M 0,0 H -44.447"
             style="fill:none;stroke:#000000;stroke-width:15;stroke-linecap:round;stroke-linejoin:round;stroke-miterlimit:10;stroke-dasharray:none;stroke-opacity:1"
             id="path10152" /></g><g
           id="g10154"
           transform="translate(77.2012,173.7725)"><path
             d="M 0,0 H -37.376"
             style="fill:none;stroke:#000000;stroke-width:15;stroke-linecap:round;stroke-linejoin:round;stroke-miterlimit:10;stroke-dasharray:none;stroke-opacity:1"
             id="path10156" /></g><g
           id="g10158"
           transform="translate(153.9736,211.7549)"><path
             d="M 0,0 H -44.447"
             style="fill:none;stroke:#000000;stroke-width:15;stroke-linecap:round;stroke-linejoin:round;stroke-miterlimit:10;stroke-dasharray:none;stroke-opacity:1"
             id="path10160" /></g><g
           id="g10162"
           transform="translate(77.2012,211.7549)"><path
             d="M 0,0 H -37.376"
             style="fill:none;stroke:#000000;stroke-width:15;stroke-linecap:round;stroke-linejoin:round;stroke-miterlimit:10;stroke-dasharray:none;stroke-opacity:1"
             id="path10164" /></g><g
           id="g10166"
           transform="translate(253.9795,211.7549)"><path
             d="M 0,0 H -67.681"
             style="fill:none;stroke:#000000;stroke-width:15;stroke-linecap:round;stroke-linejoin:round;stroke-miterlimit:10;stroke-dasharray:none;stroke-opacity:1"
             id="path10168" /></g><g
           id="g10170"
           transform="translate(60.0283,358.0264)"><path
             d="M 0,0 -20.203,-16.162 0,-32.325"
             style="fill:none;stroke:#000000;stroke-width:15;stroke-linecap:round;stroke-linejoin:round;stroke-miterlimit:10;stroke-dasharray:none;stroke-opacity:1"
             id="path10172" /></g><g
           id="g10174"
           transform="translate(220.6445,135.791)"><path
             d="M 0,0 H -111.118"
             style="fill:none;stroke:#000000;stroke-width:15;stroke-linecap:round;stroke-linejoin:round;stroke-miterlimit:10;stroke-dasharray:none;stroke-opacity:1"
             id="path10176" /></g><g
           id="g10178"
           transform="translate(77.2012,135.791)"><path
             d="M 0,0 H -37.376"
             style="fill:none;stroke:#000000;stroke-width:15;stroke-linecap:round;stroke-linejoin:round;stroke-miterlimit:10;stroke-dasharray:none;stroke-opacity:1"
             id="path10180" /></g><g
           id="g10182"
           transform="translate(253.9795,135.791)"><path
             d="M 0,0 20.203,16.162 0,32.325"
             style="fill:none;stroke:#000000;stroke-width:15;stroke-linecap:round;stroke-linejoin:round;stroke-miterlimit:10;stroke-dasharray:none;stroke-opacity:1"
             id="path10184" /></g></g></g></g></svg>
