<svg xmlns="http://www.w3.org/2000/svg" preserveAspectRatio="none" version="1.1" xmlns:xlink="http://www.w3.org/1999/xlink" xmlns:svgjs="http://svgjs.dev/svgjs" viewBox="0 0 800 800"><defs><linearGradient x1="50%" y1="0%" x2="50%" y2="100%" id="ffflurry-grad" gradientTransform="rotate(270)"><stop stop-color="#0049b7" stop-opacity="1" offset="0%"></stop><stop stop-color="#fff685" stop-opacity="1" offset="45%"></stop><stop stop-color="#ff1d58" stop-opacity="1" offset="100%"></stop></linearGradient></defs><rect width="100%" height="100%" fill="#0049b7"></rect><g fill="url(#ffflurry-grad)"><rect width="206" height="2" x="-80" y="61" rx="1" transform="rotate(133, 23, 62)" opacity="0.13"></rect><rect width="619" height="2" x="268.5" y="458" rx="1" transform="rotate(133, 578, 459)" opacity="0.13"></rect><rect width="86" height="2" x="270" y="493" rx="1" transform="rotate(133, 313, 494)" opacity="0.95"></rect><rect width="457" height="2" x="500.5" y="434" rx="1" transform="rotate(133, 729, 435)" opacity="0.52"></rect><rect width="72" height="2" x="18" y="506" rx="1" transform="rotate(133, 54, 507)" opacity="0.32"></rect><rect width="486" height="2" x="-76" y="660" rx="1" transform="rotate(133, 167, 661)" opacity="0.29"></rect><rect width="173" height="2" x="169.5" y="764" rx="1" transform="rotate(133, 256, 765)" opacity="0.26"></rect><rect width="200" height="2" x="82" y="539" rx="1" transform="rotate(133, 182, 540)" opacity="0.43"></rect><rect width="523" height="2" x="-202.5" y="173" rx="1" transform="rotate(133, 59, 174)" opacity="0.07"></rect><rect width="354" height="2" x="481" y="187" rx="1" transform="rotate(133, 658, 188)" opacity="0.96"></rect><rect width="147" height="2" x="105.5" y="72" rx="1" transform="rotate(133, 179, 73)" opacity="0.70"></rect><rect width="364" height="2" x="582" y="69" rx="1" transform="rotate(133, 764, 70)" opacity="0.50"></rect><rect width="391" height="2" x="489.5" y="59" rx="1" transform="rotate(133, 685, 60)" opacity="0.46"></rect><rect width="127" height="2" x="18.5" y="45" rx="1" transform="rotate(133, 82, 46)" opacity="0.95"></rect><rect width="706" height="2" x="-62" y="303" rx="1" transform="rotate(133, 291, 304)" opacity="0.24"></rect><rect width="173" height="2" x="353.5" y="547" rx="1" transform="rotate(133, 440, 548)" opacity="0.49"></rect><rect width="517" height="2" x="230.5" y="635" rx="1" transform="rotate(133, 489, 636)" opacity="0.35"></rect><rect width="282" height="2" x="355" y="748" rx="1" transform="rotate(133, 496, 749)" opacity="0.86"></rect><rect width="634" height="2" x="-249" y="721" rx="1" transform="rotate(133, 68, 722)" opacity="0.40"></rect><rect width="361" height="2" x="141.5" y="695" rx="1" transform="rotate(133, 322, 696)" opacity="0.12"></rect><rect width="536" height="2" x="482" y="230" rx="1" transform="rotate(133, 750, 231)" opacity="0.69"></rect><rect width="243" height="2" x="455.5" y="56" rx="1" transform="rotate(133, 577, 57)" opacity="0.78"></rect><rect width="378" height="2" x="352" y="173" rx="1" transform="rotate(133, 541, 174)" opacity="0.89"></rect><rect width="193" height="2" x="364.5" y="334" rx="1" transform="rotate(133, 461, 335)" opacity="0.97"></rect><rect width="146" height="2" x="35" y="284" rx="1" transform="rotate(133, 108, 285)" opacity="0.63"></rect><rect width="407" height="2" x="81.5" y="122" rx="1" transform="rotate(133, 285, 123)" opacity="0.34"></rect><rect width="675" height="2" x="259.5" y="298" rx="1" transform="rotate(133, 597, 299)" opacity="0.38"></rect><rect width="210" height="2" x="192" y="599" rx="1" transform="rotate(133, 297, 600)" opacity="0.22"></rect><rect width="643" height="2" x="371.5" y="670" rx="1" transform="rotate(133, 693, 671)" opacity="0.14"></rect><rect width="504" height="2" x="150" y="427" rx="1" transform="rotate(133, 402, 428)" opacity="0.72"></rect><rect width="228" height="2" x="315" y="63" rx="1" transform="rotate(133, 429, 64)" opacity="0.25"></rect><rect width="387" height="2" x="-11.5" y="408" rx="1" transform="rotate(133, 182, 409)" opacity="0.29"></rect><rect width="102" height="2" x="362" y="210" rx="1" transform="rotate(133, 413, 211)" opacity="0.13"></rect></g></svg>