<svg version="1.1" id="Layer_1" xmlns="http://www.w3.org/2000/svg" xmlns:xlink="http://www.w3.org/1999/xlink" x="0px" y="0px"
	 width="100%" viewBox="0 0 1000 267" enable-background="new 0 0 1000 267" xml:space="preserve">
<path fill="#101820" opacity="1.000000" stroke="none" 
	d="
M782.000000,268.000000 
	C521.333374,268.000000 261.166748,268.000000 1.000105,268.000000 
	C1.000070,179.000061 1.000070,90.000122 1.000035,1.000141 
	C334.333221,1.000094 667.666443,1.000094 1000.999756,1.000047 
	C1000.999817,89.999855 1000.999817,178.999710 1000.999878,267.999786 
	C928.166687,268.000000 855.333313,268.000000 782.000000,268.000000 
M881.500000,190.000610 
	C916.585510,190.000610 951.670959,190.000610 986.646362,190.000610 
	C986.646362,130.628281 986.646362,71.909264 986.646362,13.325489 
	C662.610901,13.325489 338.929230,13.325489 15.353615,13.325489 
	C15.353615,72.371407 15.353615,131.090408 15.353615,190.000610 
	C303.971344,190.000610 592.235657,190.000610 881.500000,190.000610 
z"/>
<path fill="none" opacity="1.000000" stroke="none" 
	d="
M881.000000,190.000610 
	C592.235657,190.000610 303.971344,190.000610 15.353615,190.000610 
	C15.353615,131.090408 15.353615,72.371407 15.353615,13.325489 
	C338.929230,13.325489 662.610901,13.325489 986.646362,13.325489 
	C986.646362,71.909264 986.646362,130.628281 986.646362,190.000610 
	C951.670959,190.000610 916.585510,190.000610 881.000000,190.000610 
M297.013428,136.034439 
	C297.046600,117.033821 297.079742,98.033211 298.035522,79.003113 
	C304.960236,79.003113 311.884949,79.003113 318.612671,79.003113 
	C318.612671,72.900757 318.612671,67.501503 318.612671,62.249424 
	C297.282379,62.249424 276.339508,62.249424 255.290527,62.249424 
	C255.290527,67.896942 255.290527,73.290100 255.290527,79.169189 
	C262.974670,79.169189 270.378235,79.169189 277.630066,79.169189 
	C277.630066,98.723267 277.630066,117.784798 277.630066,136.999527 
	C272.268372,136.999527 267.239868,136.628983 262.293976,137.109039 
	C257.803864,137.544876 255.857132,135.468094 254.290131,131.759262 
	C245.653992,111.318748 236.501358,91.085388 228.376266,70.446190 
	C225.623520,63.453732 222.152771,60.547638 214.901230,61.948864 
	C213.133865,62.290379 211.143433,61.635159 209.440506,62.106483 
	C207.853729,62.545666 205.753571,63.542118 205.177032,64.860664 
	C194.987534,88.163635 185.016724,111.562149 174.890900,134.893265 
	C174.484711,135.829163 173.063431,136.803177 172.034836,136.899139 
	C169.125961,137.170502 166.175323,136.994110 162.780945,136.994110 
	C162.780945,111.641975 162.780945,86.911224 162.780945,62.136475 
	C154.311737,62.136475 146.334808,62.136475 138.540039,62.136475 
	C131.774307,76.414520 125.094742,90.510727 118.232079,104.993347 
	C117.542244,103.779190 117.010910,102.985558 116.616699,102.128830 
	C111.057991,90.048073 105.579041,77.929863 99.897987,65.907097 
	C99.166756,64.359581 97.460365,62.245945 96.121071,62.182560 
	C88.532059,61.823406 80.917267,62.008781 72.838928,62.008781 
	C72.838928,87.305000 72.838928,112.039146 72.838928,137.227173 
	C68.939827,137.227173 65.526001,137.227173 62.202145,137.227173 
	C62.202145,139.310699 62.202145,140.930435 62.202145,142.745575 
	C72.137764,142.745575 81.873360,142.745575 92.225677,142.745575 
	C92.225677,127.254333 92.225677,112.006737 92.225677,96.759132 
	C92.480278,96.743591 92.734879,96.728058 92.989479,96.712517 
	C99.469872,110.147911 105.950256,123.583305 112.351189,136.853973 
	C116.384041,136.853973 120.029968,136.853973 123.552147,136.853973 
	C130.514771,122.974556 137.393448,109.262459 144.272125,95.550369 
	C144.575089,95.647018 144.878036,95.743668 145.181000,95.840324 
	C145.181000,111.436646 145.181000,127.032974 145.181000,142.999695 
	C158.816177,142.999695 172.130798,142.599228 185.400879,143.193558 
	C190.833588,143.436874 193.038361,141.169464 194.635849,136.860916 
	C195.705292,133.976532 196.707520,131.042496 198.102264,128.316086 
	C198.633194,127.278206 200.166428,126.120216 201.260849,126.102043 
	C211.402588,125.933723 221.548279,126.002602 231.573196,126.002602 
	C234.280869,131.886108 236.847641,137.463440 239.360092,142.922760 
	C285.944427,142.922760 332.099731,142.922760 378.386780,142.922760 
	C380.793976,137.327286 383.195129,131.745773 385.606323,126.140961 
	C396.640106,126.140961 407.617767,126.140961 418.430481,126.140961 
	C420.250793,130.325638 422.232788,134.247787 423.664673,138.361420 
	C424.959442,142.081223 427.112091,143.094391 431.004639,143.091904 
	C598.837341,142.984787 766.670166,142.999680 934.502930,142.999680 
	C936.276978,142.999680 938.051086,142.999680 940.059509,142.999680 
	C939.943054,140.626007 939.857849,138.890060 939.757202,136.837784 
	C935.721497,136.837784 932.159912,136.837784 928.292786,136.837784 
	C929.267883,135.218506 929.967102,133.968475 930.749268,132.772659 
	C936.917053,123.342850 936.953369,108.874214 926.822144,101.502869 
	C922.960693,98.693321 918.303772,96.817383 913.784241,95.112885 
	C908.354553,93.065125 902.549255,91.984161 897.193298,89.785896 
	C895.354065,89.031036 893.518738,86.273697 893.279724,84.243080 
	C893.088318,82.616455 894.946106,79.730835 896.545593,79.126053 
	C899.737793,77.918999 903.630371,76.846420 906.776733,77.607491 
	C912.633118,79.024040 918.162292,81.792839 924.574646,84.289635 
	C926.609375,81.299194 928.974548,77.397499 931.785339,73.848709 
	C933.518860,71.660049 933.115906,70.870850 930.967346,69.344376 
	C920.052856,61.590019 908.016724,59.210606 894.913940,60.984146 
	C884.475220,62.397095 874.951111,70.969391 874.004639,80.043182 
	C872.475220,94.705788 877.290405,102.787987 890.193176,107.046638 
	C896.632141,109.171898 903.183044,110.978378 909.547607,113.300964 
	C913.116211,114.603233 916.161255,117.109253 914.889282,121.508987 
	C913.765137,125.396980 910.483643,127.607857 906.563049,126.870567 
	C901.263916,125.874039 895.968628,124.371513 890.990662,122.314285 
	C887.336609,120.804146 884.194885,118.054298 880.844788,115.869949 
	C877.163635,120.558075 873.656250,125.024834 869.953247,129.740799 
	C872.802368,132.076004 875.556396,134.333237 878.416016,136.677032 
	C872.414856,136.677032 866.820618,136.677032 860.753784,136.677032 
	C860.753784,132.955063 860.753784,129.555038 860.753784,125.863449 
	C846.994141,125.863449 833.716736,125.863449 820.265259,125.863449 
	C820.265259,120.818756 820.265259,116.092316 820.265259,110.879814 
	C832.257385,110.879814 843.993103,110.879814 855.655151,110.879814 
	C855.655151,105.323463 855.655151,100.260788 855.655151,94.721581 
	C843.579529,94.721581 831.844238,94.721581 820.246887,94.721581 
	C820.246887,89.283989 820.246887,84.338982 820.246887,78.914673 
	C833.553040,78.914673 846.620361,78.914673 859.671814,78.914673 
	C859.671814,73.024391 859.671814,67.631592 859.671814,62.368176 
	C839.947144,62.368176 820.552612,62.368176 800.850769,62.368176 
	C800.850769,87.345787 800.850769,111.956161 800.850769,136.999527 
	C797.259521,136.999527 793.967407,136.999542 790.675232,136.999542 
	C787.292297,136.999542 783.909424,136.999527 780.133606,136.999527 
	C781.294067,135.131485 782.002991,133.876678 782.818481,132.695496 
	C789.124878,123.561386 789.039551,108.572144 778.735168,101.503578 
	C773.776001,98.101669 767.661072,96.342140 761.990112,94.033920 
	C757.515808,92.212776 752.846008,90.863701 748.405090,88.971527 
	C745.597717,87.775352 744.245728,85.822792 745.806091,82.337517 
	C747.649719,78.219688 752.956909,75.501823 758.507935,77.329178 
	C764.690979,79.364594 770.644348,82.097870 776.707458,84.531281 
	C779.602173,80.148842 782.594238,75.619080 785.616150,71.044067 
	C782.778870,69.101738 780.802063,67.298645 778.484985,66.240578 
	C768.758728,61.799122 758.798157,59.260696 747.816162,60.863373 
	C737.168884,62.417191 726.885071,70.240562 726.123718,79.655136 
	C725.106262,92.234268 726.086975,101.614014 742.292175,107.069901 
	C749.014221,109.333046 755.738892,111.589088 762.440796,113.910721 
	C766.091858,115.175491 768.332275,118.214409 766.717407,121.500954 
	C765.520508,123.936920 762.153442,126.170212 759.389465,126.745209 
	C756.223572,127.403770 752.316711,126.879562 749.335754,125.532600 
	C743.802307,123.032272 738.707458,119.561417 732.997070,116.243103 
	C729.575134,120.386864 725.802734,124.955063 721.841431,129.751953 
	C725.020264,132.302124 727.683105,134.438385 730.401672,136.619308 
	C719.192383,136.619308 708.342468,136.619308 696.972107,136.619308 
	C716.911865,122.474121 721.393005,93.015121 704.124634,73.869217 
	C689.658447,57.830185 663.527405,55.043556 645.502930,69.136070 
	C634.650635,77.621056 629.498474,88.890732 629.853821,103.034859 
	C630.205750,117.039680 636.084167,127.823303 646.557007,136.638489 
	C622.929321,136.638489 599.547852,136.638489 576.221008,136.638489 
	C576.221008,131.330826 576.221008,126.386185 576.221008,121.476967 
	C583.157654,120.973526 589.881836,120.622429 596.575317,119.960304 
	C602.979675,119.326767 608.934326,117.388306 613.723755,112.773895 
	C622.072083,104.730751 621.888062,94.436234 620.562012,84.258308 
	C619.134094,73.298286 612.313416,66.585922 601.559631,64.044777 
	C599.043213,63.450157 596.427124,62.999847 593.852417,62.976582 
	C581.669067,62.866467 569.484253,62.927433 556.804443,62.927433 
	C556.804443,87.332565 556.804443,112.063438 556.804443,136.760025 
	C539.413208,136.760025 522.513000,136.760025 505.538910,136.760025 
	C505.696045,136.244354 505.700806,135.898026 505.875092,135.704010 
	C518.151672,122.038727 513.430298,103.083656 496.120422,97.006805 
	C489.730957,94.763687 483.133911,93.108658 476.758484,90.830223 
	C473.236938,89.571693 470.031921,87.317451 471.075226,82.817787 
	C472.008484,78.792900 475.136200,77.026794 479.124786,77.045860 
	C481.220306,77.055870 483.444427,77.174873 485.383057,77.874695 
	C490.905304,79.868187 496.310883,82.184982 502.007751,84.473114 
	C504.837799,80.374809 507.915527,75.917862 511.064697,71.357430 
	C509.703033,70.096146 508.861572,68.952766 507.733032,68.327652 
	C496.349518,62.022251 484.382172,58.104691 471.241821,61.125900 
	C465.017914,62.556889 458.747864,64.990959 455.226501,70.624031 
	C447.561249,82.885849 449.023163,101.700768 467.794952,107.052650 
	C474.160553,108.867493 480.435547,111.002670 486.739349,113.030678 
	C490.497437,114.239731 493.498169,116.614670 492.823547,120.765907 
	C492.158051,124.860992 489.071075,127.519424 484.669861,126.910797 
	C479.905670,126.251991 474.982330,125.504692 470.601379,123.667892 
	C466.344086,121.882919 462.686218,118.668343 458.536163,115.930473 
	C455.225983,119.919022 451.768158,123.842842 448.687958,128.043579 
	C448.193604,128.717789 449.010101,130.993835 449.879486,131.890884 
	C451.566620,133.631805 453.721771,134.919189 456.233490,136.808594 
	C443.877991,137.365540 443.645660,137.469147 439.152344,127.393944 
	C431.296936,109.780045 423.570648,92.103058 416.152557,74.301521 
	C411.070007,62.104679 411.341003,62.161491 398.416443,61.898117 
	C394.401947,61.816311 392.127655,62.799347 390.938446,66.814468 
	C389.932526,70.210823 388.145996,73.373276 386.740234,76.654381 
	C379.790253,92.875900 372.660858,109.024162 365.973358,125.353310 
	C361.087097,137.284302 361.303406,137.430435 351.060699,136.892700 
	C350.790222,136.878494 350.535583,136.563156 349.788971,136.064758 
	C349.788971,111.650429 349.788971,86.919533 349.788971,62.391914 
	C343.225525,62.391914 337.159973,62.391914 330.804138,62.391914 
	C330.804138,87.393539 330.804138,112.003815 330.804138,136.962250 
	C319.366150,136.962250 308.237762,136.962250 297.013428,136.034439 
z"/>
<path fill="#101820" opacity="1.000000" stroke="none" 
	d="
M297.109406,136.962250 
	C308.237762,136.962250 319.366150,136.962250 330.804138,136.962250 
	C330.804138,112.003815 330.804138,87.393539 330.804138,62.391914 
	C337.159973,62.391914 343.225525,62.391914 349.788971,62.391914 
	C349.788971,86.919533 349.788971,111.650429 349.788971,136.064758 
	C350.535583,136.563156 350.790222,136.878494 351.060699,136.892700 
	C361.303406,137.430435 361.087097,137.284302 365.973358,125.353310 
	C372.660858,109.024162 379.790253,92.875900 386.740234,76.654381 
	C388.145996,73.373276 389.932526,70.210823 390.938446,66.814468 
	C392.127655,62.799347 394.401947,61.816311 398.416443,61.898117 
	C411.341003,62.161491 411.070007,62.104679 416.152557,74.301521 
	C423.570648,92.103058 431.296936,109.780045 439.152344,127.393944 
	C443.645660,137.469147 443.877991,137.365540 456.233490,136.808594 
	C453.721771,134.919189 451.566620,133.631805 449.879486,131.890884 
	C449.010101,130.993835 448.193604,128.717789 448.687958,128.043579 
	C451.768158,123.842842 455.225983,119.919022 458.536163,115.930473 
	C462.686218,118.668343 466.344086,121.882919 470.601379,123.667892 
	C474.982330,125.504692 479.905670,126.251991 484.669861,126.910797 
	C489.071075,127.519424 492.158051,124.860992 492.823547,120.765907 
	C493.498169,116.614670 490.497437,114.239731 486.739349,113.030678 
	C480.435547,111.002670 474.160553,108.867493 467.794952,107.052650 
	C449.023163,101.700768 447.561249,82.885849 455.226501,70.624031 
	C458.747864,64.990959 465.017914,62.556889 471.241821,61.125900 
	C484.382172,58.104691 496.349518,62.022251 507.733032,68.327652 
	C508.861572,68.952766 509.703033,70.096146 511.064697,71.357430 
	C507.915527,75.917862 504.837799,80.374809 502.007751,84.473114 
	C496.310883,82.184982 490.905304,79.868187 485.383057,77.874695 
	C483.444427,77.174873 481.220306,77.055870 479.124786,77.045860 
	C475.136200,77.026794 472.008484,78.792900 471.075226,82.817787 
	C470.031921,87.317451 473.236938,89.571693 476.758484,90.830223 
	C483.133911,93.108658 489.730957,94.763687 496.120422,97.006805 
	C513.430298,103.083656 518.151672,122.038727 505.875092,135.704010 
	C505.700806,135.898026 505.696045,136.244354 505.538910,136.760025 
	C522.513000,136.760025 539.413208,136.760025 556.804443,136.760025 
	C556.804443,112.063438 556.804443,87.332565 556.804443,62.927433 
	C569.484253,62.927433 581.669067,62.866467 593.852417,62.976582 
	C596.427124,62.999847 599.043213,63.450157 601.559631,64.044777 
	C612.313416,66.585922 619.134094,73.298286 620.562012,84.258308 
	C621.888062,94.436234 622.072083,104.730751 613.723755,112.773895 
	C608.934326,117.388306 602.979675,119.326767 596.575317,119.960304 
	C589.881836,120.622429 583.157654,120.973526 576.221008,121.476967 
	C576.221008,126.386185 576.221008,131.330826 576.221008,136.638489 
	C599.547852,136.638489 622.929321,136.638489 646.557007,136.638489 
	C636.084167,127.823303 630.205750,117.039680 629.853821,103.034859 
	C629.498474,88.890732 634.650635,77.621056 645.502930,69.136070 
	C663.527405,55.043556 689.658447,57.830185 704.124634,73.869217 
	C721.393005,93.015121 716.911865,122.474121 696.972107,136.619308 
	C708.342468,136.619308 719.192383,136.619308 730.401672,136.619308 
	C727.683105,134.438385 725.020264,132.302124 721.841431,129.751953 
	C725.802734,124.955063 729.575134,120.386864 732.997070,116.243103 
	C738.707458,119.561417 743.802307,123.032272 749.335754,125.532600 
	C752.316711,126.879562 756.223572,127.403770 759.389465,126.745209 
	C762.153442,126.170212 765.520508,123.936920 766.717407,121.500954 
	C768.332275,118.214409 766.091858,115.175491 762.440796,113.910721 
	C755.738892,111.589088 749.014221,109.333046 742.292175,107.069901 
	C726.086975,101.614014 725.106262,92.234268 726.123718,79.655136 
	C726.885071,70.240562 737.168884,62.417191 747.816162,60.863373 
	C758.798157,59.260696 768.758728,61.799122 778.484985,66.240578 
	C780.802063,67.298645 782.778870,69.101738 785.616150,71.044067 
	C782.594238,75.619080 779.602173,80.148842 776.707458,84.531281 
	C770.644348,82.097870 764.690979,79.364594 758.507935,77.329178 
	C752.956909,75.501823 747.649719,78.219688 745.806091,82.337517 
	C744.245728,85.822792 745.597717,87.775352 748.405090,88.971527 
	C752.846008,90.863701 757.515808,92.212776 761.990112,94.033920 
	C767.661072,96.342140 773.776001,98.101669 778.735168,101.503578 
	C789.039551,108.572144 789.124878,123.561386 782.818481,132.695496 
	C782.002991,133.876678 781.294067,135.131485 780.133606,136.999527 
	C783.909424,136.999527 787.292297,136.999542 790.675232,136.999542 
	C793.967407,136.999542 797.259521,136.999527 800.850769,136.999527 
	C800.850769,111.956161 800.850769,87.345787 800.850769,62.368176 
	C820.552612,62.368176 839.947144,62.368176 859.671814,62.368176 
	C859.671814,67.631592 859.671814,73.024391 859.671814,78.914673 
	C846.620361,78.914673 833.553040,78.914673 820.246887,78.914673 
	C820.246887,84.338982 820.246887,89.283989 820.246887,94.721581 
	C831.844238,94.721581 843.579529,94.721581 855.655151,94.721581 
	C855.655151,100.260788 855.655151,105.323463 855.655151,110.879814 
	C843.993103,110.879814 832.257385,110.879814 820.265259,110.879814 
	C820.265259,116.092316 820.265259,120.818756 820.265259,125.863449 
	C833.716736,125.863449 846.994141,125.863449 860.753784,125.863449 
	C860.753784,129.555038 860.753784,132.955063 860.753784,136.677032 
	C866.820618,136.677032 872.414856,136.677032 878.416016,136.677032 
	C875.556396,134.333237 872.802368,132.076004 869.953247,129.740799 
	C873.656250,125.024834 877.163635,120.558075 880.844788,115.869949 
	C884.194885,118.054298 887.336609,120.804146 890.990662,122.314285 
	C895.968628,124.371513 901.263916,125.874039 906.563049,126.870567 
	C910.483643,127.607857 913.765137,125.396980 914.889282,121.508987 
	C916.161255,117.109253 913.116211,114.603233 909.547607,113.300964 
	C903.183044,110.978378 896.632141,109.171898 890.193176,107.046638 
	C877.290405,102.787987 872.475220,94.705788 874.004639,80.043182 
	C874.951111,70.969391 884.475220,62.397095 894.913940,60.984146 
	C908.016724,59.210606 920.052856,61.590019 930.967346,69.344376 
	C933.115906,70.870850 933.518860,71.660049 931.785339,73.848709 
	C928.974548,77.397499 926.609375,81.299194 924.574646,84.289635 
	C918.162292,81.792839 912.633118,79.024040 906.776733,77.607491 
	C903.630371,76.846420 899.737793,77.918999 896.545593,79.126053 
	C894.946106,79.730835 893.088318,82.616455 893.279724,84.243080 
	C893.518738,86.273697 895.354065,89.031036 897.193298,89.785896 
	C902.549255,91.984161 908.354553,93.065125 913.784241,95.112885 
	C918.303772,96.817383 922.960693,98.693321 926.822144,101.502869 
	C936.953369,108.874214 936.917053,123.342850 930.749268,132.772659 
	C929.967102,133.968475 929.267883,135.218506 928.292786,136.837784 
	C932.159912,136.837784 935.721497,136.837784 939.757202,136.837784 
	C939.857849,138.890060 939.943054,140.626007 940.059509,142.999680 
	C938.051086,142.999680 936.276978,142.999680 934.502930,142.999680 
	C766.670166,142.999680 598.837341,142.984787 431.004639,143.091904 
	C427.112091,143.094391 424.959442,142.081223 423.664673,138.361420 
	C422.232788,134.247787 420.250793,130.325638 418.430481,126.140961 
	C407.617767,126.140961 396.640106,126.140961 385.606323,126.140961 
	C383.195129,131.745773 380.793976,137.327286 378.386780,142.922760 
	C332.099731,142.922760 285.944427,142.922760 239.360092,142.922760 
	C236.847641,137.463440 234.280869,131.886108 231.573196,126.002602 
	C221.548279,126.002602 211.402588,125.933723 201.260849,126.102043 
	C200.166428,126.120216 198.633194,127.278206 198.102264,128.316086 
	C196.707520,131.042496 195.705292,133.976532 194.635849,136.860916 
	C193.038361,141.169464 190.833588,143.436874 185.400879,143.193558 
	C172.130798,142.599228 158.816177,142.999695 145.181000,142.999695 
	C145.181000,127.032974 145.181000,111.436646 145.181000,95.840324 
	C144.878036,95.743668 144.575089,95.647018 144.272125,95.550369 
	C137.393448,109.262459 130.514771,122.974556 123.552147,136.853973 
	C120.029968,136.853973 116.384041,136.853973 112.351189,136.853973 
	C105.950256,123.583305 99.469872,110.147911 92.989479,96.712517 
	C92.734879,96.728058 92.480278,96.743591 92.225677,96.759132 
	C92.225677,112.006737 92.225677,127.254333 92.225677,142.745575 
	C81.873360,142.745575 72.137764,142.745575 62.202145,142.745575 
	C62.202145,140.930435 62.202145,139.310699 62.202145,137.227173 
	C65.526001,137.227173 68.939827,137.227173 72.838928,137.227173 
	C72.838928,112.039146 72.838928,87.305000 72.838928,62.008781 
	C80.917267,62.008781 88.532059,61.823406 96.121071,62.182560 
	C97.460365,62.245945 99.166756,64.359581 99.897987,65.907097 
	C105.579041,77.929863 111.057991,90.048073 116.616699,102.128830 
	C117.010910,102.985558 117.542244,103.779190 118.232079,104.993347 
	C125.094742,90.510727 131.774307,76.414520 138.540039,62.136475 
	C146.334808,62.136475 154.311737,62.136475 162.780945,62.136475 
	C162.780945,86.911224 162.780945,111.641975 162.780945,136.994110 
	C166.175323,136.994110 169.125961,137.170502 172.034836,136.899139 
	C173.063431,136.803177 174.484711,135.829163 174.890900,134.893265 
	C185.016724,111.562149 194.987534,88.163635 205.177032,64.860664 
	C205.753571,63.542118 207.853729,62.545666 209.440506,62.106483 
	C211.143433,61.635159 213.133865,62.290379 214.901230,61.948864 
	C222.152771,60.547638 225.623520,63.453732 228.376266,70.446190 
	C236.501358,91.085388 245.653992,111.318748 254.290131,131.759262 
	C255.857132,135.468094 257.803864,137.544876 262.293976,137.109039 
	C267.239868,136.628983 272.268372,136.999527 277.630066,136.999527 
	C277.630066,117.784798 277.630066,98.723267 277.630066,79.169189 
	C270.378235,79.169189 262.974670,79.169189 255.290527,79.169189 
	C255.290527,73.290100 255.290527,67.896942 255.290527,62.249424 
	C276.339508,62.249424 297.282379,62.249424 318.612671,62.249424 
	C318.612671,67.501503 318.612671,72.900757 318.612671,79.003113 
	C311.884949,79.003113 304.960236,79.003113 297.332428,79.352402 
	C296.429230,80.495277 296.056244,81.288460 296.054413,82.082504 
	C296.015045,99.137283 295.994446,116.192238 296.058807,133.246826 
	C296.063477,134.486618 296.743408,135.723831 297.109406,136.962250 
M695.000000,102.459091 
	C695.656921,93.962677 692.537598,86.868813 685.748596,82.064957 
	C674.007385,73.756920 663.903198,74.897820 654.682312,85.994110 
	C645.008118,97.635941 647.608582,113.893280 658.558044,122.704185 
	C665.951111,128.653275 674.723572,128.957611 682.934875,124.403412 
	C690.914734,119.977562 694.940674,112.665337 695.000000,102.459091 
M593.400452,79.857597 
	C587.706177,79.101265 582.011902,78.344940 576.371277,77.595734 
	C576.371277,87.100044 576.371277,95.482224 576.371277,103.999687 
	C581.229492,103.999687 585.713562,104.032852 590.196899,103.991837 
	C596.759888,103.931808 600.627319,100.603470 601.961548,93.944443 
	C603.218872,87.669258 600.219238,82.259460 593.400452,79.857597 
M218.517441,95.015984 
	C217.564178,92.815346 216.610931,90.614716 215.465027,87.969330 
	C212.471329,95.089981 209.650528,101.799362 206.693985,108.831589 
	C212.840790,108.831589 218.263870,108.831589 224.214218,108.831589 
	C222.371552,104.229256 220.657806,99.948929 218.517441,95.015984 
M410.376648,108.850075 
	C407.774689,102.140755 405.172729,95.431435 402.166748,87.680260 
	C398.781219,95.705750 396.036011,102.213333 393.180786,108.981689 
	C398.947723,108.981689 404.258881,108.981689 410.376648,108.850075 
z"/>
<path fill="#101820" opacity="1.000000" stroke="none" 
	d="
M297.061401,136.498352 
	C296.743408,135.723831 296.063477,134.486618 296.058807,133.246826 
	C295.994446,116.192238 296.015045,99.137283 296.054413,82.082504 
	C296.056244,81.288460 296.429230,80.495277 296.871124,79.367142 
	C297.079742,98.033211 297.046600,117.033821 297.061401,136.498352 
z"/>
<path fill="none" opacity="1.000000" stroke="none" 
	d="
M695.000000,102.920601 
	C694.940674,112.665337 690.914734,119.977562 682.934875,124.403412 
	C674.723572,128.957611 665.951111,128.653275 658.558044,122.704185 
	C647.608582,113.893280 645.008118,97.635941 654.682312,85.994110 
	C663.903198,74.897820 674.007385,73.756920 685.748596,82.064957 
	C692.537598,86.868813 695.656921,93.962677 695.000000,102.920601 
z"/>
<path fill="none" opacity="1.000000" stroke="none" 
	d="
M593.811340,79.922218 
	C600.219238,82.259460 603.218872,87.669258 601.961548,93.944443 
	C600.627319,100.603470 596.759888,103.931808 590.196899,103.991837 
	C585.713562,104.032852 581.229492,103.999687 576.371277,103.999687 
	C576.371277,95.482224 576.371277,87.100044 576.371277,77.595734 
	C582.011902,78.344940 587.706177,79.101265 593.811340,79.922218 
z"/>
<path fill="none" opacity="1.000000" stroke="none" 
	d="
M218.730743,95.342293 
	C220.657806,99.948929 222.371552,104.229256 224.214218,108.831589 
	C218.263870,108.831589 212.840790,108.831589 206.693985,108.831589 
	C209.650528,101.799362 212.471329,95.089981 215.465027,87.969330 
	C216.610931,90.614716 217.564178,92.815346 218.730743,95.342293 
z"/>
<path fill="none" opacity="1.000000" stroke="none" 
	d="
M409.973328,108.915878 
	C404.258881,108.981689 398.947723,108.981689 393.180786,108.981689 
	C396.036011,102.213333 398.781219,95.705750 402.166748,87.680260 
	C405.172729,95.431435 407.774689,102.140755 409.973328,108.915878 
z"/>
</svg>