<svg id="Layer_1" enable-background="new 0 0 500 500" height="512" viewBox="0 0 500 500" width="512" xmlns="http://www.w3.org/2000/svg"><g clip-rule="evenodd" fill-rule="evenodd"><g><path d="m191.61 215.71s-17.57.89-36.8.99c-19.51.1-26.02 3.7-65.83 43.51-4.85-18.44-9.55-36.4-14.03-53.36-10.32-39.08-55.86-29.53-49.4 10.65l12.95 80.57c13.55 84.34 59.91 27.47 102.95 3.49 0 33.42-.23 109.48.05 130.1h237.65c.38-27.19 0-100.39 0-127.61 0-76.02-26.15-86.56-94.38-88.34l.05-.06-15.8-54.27-65.84-2.24z" fill="#fcb13c"/><path d="m250.68 253.02 19.95 29.78-16.76 10.52 15.25 90.93-31.05 42.35-33.38-42.44 15.23-90.84-16.75-10.52 19.94-29.78z" fill="#dd6e42"/><path d="m238.07 21.32c-19.52 0-21.08 10.94-60.09-1.15-11.86-3.67-21.03 15-15.55 41.78 4.05 19.76 1.17 42.04 1.17 51.92 0 41.13 34.52 73.52 68.03 73.99 33.51.48 73.76-14.78 80.9-73.99 7.15-59.21-33.33-92.55-74.46-92.55z" fill="#fad1a3"/><path d="m100.34 141.11c24.69.66 41.24 46.07 28.42 54.39-17.65 11.45-51.12 5.88-59.24-10.24-23.9-47.43-32.66-95.38-25.72-148.09 2.5-19.02 31.9-34.24 51.94-29.39 14.85 3.59 13.72 52.39-4.6 59.39-12.44 4.76-21.04 11.47-20.09 22.99 1.23 14.99 2.97 21.49 6.74 36.04 2.27 8.75 11.13 14.61 22.55 14.91z" fill="#818181"/><ellipse cx="382.89" cy="401.04" fill="#e6e6e5" rx="92.22" ry="92.22" transform="matrix(.23 -.973 .973 .23 -95.395 681.549)"/><path d="m323.06 411.39 17-17 21.65 21.66 64.01-64.01 17 17-81.01 81.01z" fill="#9aca3c"/></g><path d="m336.35 407.62c-2.66 2.66-6.97 2.66-9.63 0s-2.66-6.97 0-9.63l8.5-8.5c2.66-2.66 6.97-2.66 9.63 0l16.84 16.84 59.19-59.19c2.66-2.66 6.97-2.66 9.63 0l17 17c2.66 2.66 2.66 6.97 0 9.63l-81.01 81.01c-2.66 2.66-6.97 2.66-9.63 0l-24.43-24.43c-2.66-2.66-2.66-6.97 0-9.63s6.97-2.66 9.63 0l19.62 19.62 71.38-71.38-7.37-7.37-59.19 59.19c-2.66 2.66-6.97 2.66-9.63 0l-16.84-16.84zm69.16 75.75c-3.62.99-7.35 1.75-11.17 2.26-3.65.49-7.47.74-11.47.74-23.59 0-44.94-9.56-60.39-25.01-15.46-15.45-25.01-36.81-25.01-60.39 0-23.59 9.56-44.94 25.01-60.39 15.46-15.45 36.81-25.01 60.39-25.01 19.03 0 36.58 6.2 50.75 16.68 14.56 10.77 25.58 26.04 30.98 43.74 1.09 3.58 4.87 5.61 8.46 4.52 3.58-1.09 5.61-4.87 4.52-8.46-6.27-20.55-19.03-38.25-35.87-50.71-15.71-11.62-34.95-18.71-55.78-19.34-.01-1.15-.04-2.58-.07-4.29-.04-2.17-.1-4.17-.18-5.99-.15-3.75-3.3-6.66-7.05-6.52-3.75.15-6.66 3.3-6.52 7.05.08 1.98.15 3.89.18 5.73.02.91.03 2.43.03 4.54-13.72 1.45-26.61 5.71-38.07 12.19v-19.48c0-3.76-3.05-6.81-6.81-6.81s-6.81 3.05-6.81 6.81v28.74c-2.71 2.2-5.31 4.53-7.78 7-17.92 17.92-29.01 42.68-29.01 70.02 0 8.21 1 16.18 2.88 23.81h-38.97l26.74-36.48c1.1-1.44 1.62-3.31 1.3-5.24l-14.5-86.48 12.92-8.11.16-.1c3.11-2.09 3.95-6.3 1.86-9.42l-15.91-23.76 27.48-32.68c22.98.71 40.74 2.56 53.76 7.91 12.58 5.17 20.88 13.96 25.59 28.91 1.12 3.58 4.93 5.58 8.51 4.47 3.58-1.12 5.58-4.93 4.47-8.51-6.07-19.25-16.9-30.64-33.41-37.42-14.46-5.94-33.09-8.05-56.79-8.86l-8.03-27.58c3.49-2.23 6.85-4.78 10.04-7.7 13.64-12.47 23.97-31.36 27.32-59.13.59-4.92.88-9.64.88-14.17 0-25.21-8.61-45.39-21.92-59.88-13.35-14.52-31.39-23.23-50.24-25.51-3.32-.4-6.65-.6-9.94-.6-7.04 0-11.94 1.26-16.82 2.52-8.34 2.15-16.65 4.28-41.27-3.34-2.75-.85-5.46-.98-8.08-.44-3.82.78-7.19 2.91-9.97 6.18-2.36 2.79-4.3 6.47-5.66 10.86-2.61 8.43-3.17 19.93-.49 33.02.15.72.29 1.45.41 2.19.03.26.07.52.13.78 2.21 13.28 1.42 27.73.86 37.99-.22 3.95-.4 7.34-.4 9.62 0 9.05 1.54 17.72 4.3 25.83 2.92 8.57 7.2 16.46 12.46 23.41 2.26 3 6.53 3.59 9.52 1.33 3-2.26 3.59-6.53 1.33-9.52-4.42-5.84-8.01-12.44-10.44-19.58-2.28-6.7-3.55-13.91-3.55-21.46 0-2.57.16-5.5.35-8.93.35-6.35.77-14.21.58-22.59.77.33 1.56.63 2.37.92 8.66 3.06 19.96 3.87 31.93 3.21 3.75-.21 6.62-3.41 6.41-7.15-.21-3.75-3.41-6.62-7.15-6.41-10.31.57-19.8-.04-26.67-2.47-4.54-1.61-7.7-3.99-8.66-7.35-.15-.84-.31-1.68-.48-2.52-2.2-10.73-1.83-19.85.17-26.32.8-2.59 1.84-4.65 3.05-6.07.8-.94 1.58-1.51 2.31-1.66.39-.08.85-.04 1.38.12 28.22 8.74 38.4 6.13 48.61 3.5 3.95-1.02 7.92-2.04 13.47-2.04 2.82 0 5.61.17 8.35.5 15.72 1.9 30.75 9.13 41.83 21.2 11.12 12.1 18.3 29.15 18.3 50.68 0 .42 0 .84-.01 1.27-10.38-1.31-18.62-4.43-24.7-9.36-7.12-5.78-11.51-14.31-13.15-25.6-.07-.52-.2-1.04-.4-1.56-1.37-3.5-5.31-5.22-8.8-3.86-3.97 1.56-8.64 3.1-13.72 4.52-4.9 1.37-10.32 2.66-16.03 3.78-3.69.72-6.09 4.29-5.37 7.98s4.29 6.09 7.98 5.37c5.85-1.14 11.62-2.53 17.04-4.04 2.62-.73 5.13-1.49 7.49-2.26 2.93 10.96 8.4 19.69 16.41 26.19 8.22 6.67 18.96 10.79 32.21 12.38-3.17 22.94-11.65 38.4-22.67 48.48-3.72 3.4-7.75 6.21-11.97 8.5-.09.05-.18.1-.27.15-12.21 6.55-26.05 8.82-38.87 8.64-5.03-.07-10.14-.99-15.19-2.64-5.18-1.7-10.24-4.19-15.01-7.36-3.13-2.07-7.35-1.21-9.42 1.92-1.49 2.25-1.46 5.06-.17 7.23l-5.78 28.29c-.09.07-.19.14-.28.22-.17.15-.34.3-.49.46-6.73.27-18.39.67-30.6.73-11.07.05-18.49 1.13-28.97 7.95-8.19 5.33-18.01 14.18-33.26 29.19l-.72-2.75c-3.54-13.47-6.99-26.61-10.31-39.2-.15-.55-.3-1.09-.45-1.62 3.96 1.72 8.29 3 12.76 3.81 11.85 2.14 24.99 1.01 35.07-4.06 1.2-.61 2.39-1.29 3.56-2.04 4.98-3.23 7.34-9.02 7.53-16.01.13-4.74-.77-10.17-2.52-15.63-1.7-5.3-4.22-10.73-7.42-15.65-6.99-10.77-17.29-19.25-29.54-19.57-4.39-.12-8.21-1.26-11.11-3.17-2.54-1.68-4.33-3.97-5.02-6.66l-.22-.86c-3.5-13.5-5.14-19.82-6.31-34.03-.29-3.61.9-6.45 3.14-8.77 2.8-2.89 7.22-5.25 12.59-7.3 8.88-3.39 14.56-13.04 17.26-24.21 1.44-5.93 2.07-12.37 1.91-18.45-.17-6.29-1.17-12.28-3-17.06-2.49-6.52-6.6-11.22-12.4-12.62-9.78-2.37-21.24-.76-31.42 3.5-10.3 4.3-19.53 11.41-24.66 19.96-1.92 3.22-.88 7.39 2.34 9.31s7.39.88 9.31-2.34c3.59-5.98 10.44-11.12 18.23-14.38 7.73-3.23 16.15-4.52 23.02-2.86.95.23 1.95 1.85 2.88 4.27 1.3 3.41 2.02 7.81 2.14 12.53.13 4.94-.38 10.16-1.54 14.94-1.73 7.16-4.74 13.1-8.91 14.69-7.07 2.7-13.16 6.07-17.54 10.6-4.93 5.1-7.56 11.37-6.91 19.27v.03c1.25 15.16 3 21.91 6.73 36.32l.22.86c1.57 6.06 5.35 11.07 10.66 14.58 4.95 3.28 11.27 5.22 18.29 5.41 7.11.19 13.68 6 18.48 13.4 2.53 3.89 4.53 8.2 5.88 12.41 1.3 4.05 1.96 7.93 1.88 11.17-.07 2.55-.5 4.39-1.36 4.94-.69.45-1.46.88-2.28 1.3-7.4 3.73-17.38 4.5-26.56 2.84-8.79-1.59-16.54-5.3-20-10.64-.22-.34-.43-.71-.64-1.11-3.7-7.35-7.03-14.71-9.98-22.09-2.94-7.36-5.52-14.75-7.71-22.18-1.06-3.6-4.83-5.66-8.43-4.6s-5.66 4.83-4.6 8.43c2.32 7.85 5.03 15.64 8.14 23.41 1.54 3.86 3.19 7.72 4.92 11.56-.33-.11-.67-.22-1-.32-4.75-1.43-9.67-1.61-14.35-.62-4.67.99-9.1 3.16-12.89 6.43-8.36 7.2-13.5 19.67-10.82 36.33l12.95 80.57c6.72 41.86 21.8 52.97 41.18 49.86 14.24-2.29 29.71-13.17 45.74-24.43 4.78-3.36 9.61-6.76 14.32-9.86 3.13-2.07 3.99-6.29 1.92-9.42s-6.29-3.99-9.42-1.92c-4.98 3.29-9.83 6.7-14.64 10.08-14.74 10.36-28.97 20.37-40.04 22.15-11.37 1.83-20.56-6.93-25.65-38.58l-12.95-80.57c-1.84-11.42 1.21-19.56 6.3-23.94 2-1.72 4.35-2.87 6.83-3.4 2.47-.52 5.09-.42 7.65.35 6.39 1.93 12.43 8.07 15.35 19.13 3.32 12.58 6.77 25.72 10.31 39.2l3.6 13.72c.25 1.29.87 2.53 1.87 3.53 2.66 2.66 6.97 2.66 9.63 0 19.61-19.61 30.92-30.24 39.41-35.77 7.6-4.95 13.19-5.73 21.63-5.77 14.56-.07 27.96-.58 33.89-.84l25.92 30.83-17.01 25.41c-.07.1-.14.2-.2.31-2 3.17-1.05 7.37 2.13 9.36l12.92 8.11-2.46 14.65c-.62 3.7 1.88 7.2 5.59 7.82 3.7.62 7.2-1.88 7.82-5.59l3.2-19.11c.48-2.9-.95-5.68-3.37-7.04l-10.56-6.63 14.02-20.94h20.35l14.02 20.94-10.84 6.8c-2.39 1.5-3.52 4.24-3.08 6.86l14.77 88.11-24.06 32.81-26-33.05 6.56-39.13c.62-3.7-1.88-7.2-5.59-7.82s-7.2 1.88-7.82 5.59l-7.02 41.85c-.39 1.89.03 3.93 1.31 5.57l28.7 36.49h-79.84c-.05-7.12-.07-16.92-.08-28.05-.01-15.29.01-33.09.04-49.91 0-3.75-3.04-6.78-6.78-6.78-3.75 0-6.78 3.04-6.78 6.78-.02 16.82-.04 34.62-.04 49.91.01 15.34.05 28.16.14 34.94.04 3.72 3.07 6.7 6.78 6.7v.03h149.69c5.02 12.29 12.45 23.35 21.69 32.59 17.92 17.92 42.68 29.01 70.02 29.01 4.38 0 8.79-.31 13.23-.9 4.41-.59 8.74-1.48 12.98-2.63 3.61-.98 5.75-4.71 4.76-8.33-.98-3.68-4.71-5.81-8.32-4.82zm62.71-86.01c.03.73.05 1.33.06 1.8 0 .22-.01.38-.01 1.8 0 15.56-4.14 30.12-11.37 42.65-7.51 13.01-18.36 23.86-31.37 31.38-3.25 1.88-4.35 6.04-2.47 9.28 1.88 3.25 6.04 4.35 9.28 2.47 15.06-8.7 27.61-21.26 36.31-36.32 8.42-14.58 13.23-31.47 13.23-49.46 0-.13-.02-.56-.05-2.06-.02-.82-.04-1.51-.06-2.06-.15-3.75-3.3-6.66-7.05-6.52-3.73.14-6.64 3.3-6.5 7.04zm-415.76-281.62c.71 3.69-1.71 7.25-5.4 7.95s-7.25-1.71-7.95-5.4c-1.92-9.95-3.22-20.02-3.9-30.24-.67-10.16-.72-20.48-.14-30.98.21-3.75 3.41-6.62 7.15-6.41 3.75.21 6.62 3.41 6.41 7.16-.55 9.93-.5 19.71.14 29.39.64 9.6 1.87 19.1 3.69 28.53zm146.46 97.91 5.23-25.61c2.67 1.25 5.39 2.33 8.15 3.24 6.25 2.05 12.72 3.19 19.23 3.28 12.38.18 25.65-1.67 38.1-6.79l7.63 26.21-27.02 32.13h-24.03z" fill="#4e4e4e"/></g></svg>